HIERARCHY
ROOT Hips
{
	OFFSET 0.00000 0.00000 0.00000
	CHANNELS 6 Xposition Yposition Zposition Zrotation Yrotation Xrotation 
	JOINT LHipJoint
	{
		OFFSET 0 0 0
		CHANNELS 3 Zrotation Yrotation Xrotation
		JOINT LeftHip
		{
			OFFSET 1.66553 -1.82942 0.76350
			CHANNELS 3 Zrotation Yrotation Xrotation
			JOINT LeftKnee
			{
				OFFSET 2.41740 -6.64177 0.00000
				CHANNELS 3 Zrotation Yrotation Xrotation
				JOINT LeftAnkle
				{
					OFFSET 2.71614 -7.46254 0.00000
					CHANNELS 3 Zrotation Yrotation Xrotation
					JOINT LeftToe
					{
						OFFSET 0.08005 -0.21993 1.82495
						CHANNELS 3 Zrotation Yrotation Xrotation
						End Site
						{
							OFFSET 0.00000 -0.00000 0.93441
						}
					}
				}
			}
		}
	}
	JOINT RHipJoint
	{
		OFFSET 0 0 0
		CHANNELS 3 Zrotation Yrotation Xrotation
		JOINT RightHip
		{
			OFFSET -1.63725 -1.82942 0.76350
			CHANNELS 3 Zrotation Yrotation Xrotation
			JOINT RightKnee
			{
				OFFSET -2.40538 -6.60872 0.00000
				CHANNELS 3 Zrotation Yrotation Xrotation
				JOINT RightAnkle
				{
					OFFSET -2.73312 -7.50919 0.00000
					CHANNELS 3 Zrotation Yrotation Xrotation
					JOINT RightToe
					{
						OFFSET -0.15567 -0.42769 1.93504
						CHANNELS 3 Zrotation Yrotation Xrotation
						End Site
						{
							OFFSET -0.00000 -0.00000 1.00100
						}
					}
				}
			}
		}
	}
	JOINT lowerback
	{
		OFFSET 0 0 0
		CHANNELS 3 Zrotation Yrotation Xrotation
		JOINT Chest
		{
			OFFSET 0.00326 2.30118 -0.13017
			CHANNELS 3 Zrotation Yrotation Xrotation
			JOINT Chest2
			{
				OFFSET 0.02887 2.30677 0.00834
				CHANNELS 3 Zrotation Yrotation Xrotation
				JOINT lowerneck
				{
					OFFSET 0 0 0
					CHANNELS 3 Zrotation Yrotation Xrotation
					JOINT Neck
					{
						OFFSET 0.12946 1.68326 0.00713
						CHANNELS 3 Zrotation Yrotation Xrotation
						JOINT Head
						{
							OFFSET -0.24364 1.67243 -0.16079
							CHANNELS 3 Zrotation Yrotation Xrotation
							End Site
							{
								OFFSET -0.09229 1.70819 -0.06383
							}
						}
					}
				}
				JOINT LeftCollar
				{
					OFFSET 0 0 0
					CHANNELS 3 Zrotation Yrotation Xrotation
					JOINT LeftShoulder
					{
						OFFSET 3.28104 0.69567 -0.00556
CHANNELS 3 Zrotation Xrotation Yrotation
						JOINT LeftElbow
						{
OFFSET 0 -5.707060 -0.000000
CHANNELS 3 Zrotation Xrotation Yrotation
							JOINT LeftWrist
							{
OFFSET 0 -3.332430 0.000000
CHANNELS 3 Zrotation Xrotation Yrotation
								JOINT lhand
								{
									OFFSET 0 0 0
CHANNELS 3 Zrotation Xrotation Yrotation
									JOINT LFingers
									{
OFFSET 0 -0.792690 0.000000
CHANNELS 3 Zrotation Xrotation Yrotation
										End Site
										{
OFFSET 0 -0.639090 0.000000
										}
									}
								}
								JOINT LThumb
								{
OFFSET 0 0.000000 0.000000
CHANNELS 3 Zrotation Xrotation Yrotation
									End Site
									{
OFFSET 0 -0.648840 0.648840
									}
								}
							}
						}
					}
				}
				JOINT RightCollar
				{
					OFFSET 0 0 0
					CHANNELS 3 Zrotation Yrotation Xrotation
					JOINT RightShoulder
					{
						OFFSET -3.40955 0.64424 0.14010
CHANNELS 3 Zrotation Xrotation Yrotation
						JOINT RightElbow
						{
OFFSET 0 -5.881760 -0.000000
CHANNELS 3 Zrotation Xrotation Yrotation
							JOINT RightWrist
							{
OFFSET 0 -3.281560 0.000000
CHANNELS 3 Zrotation Xrotation Yrotation
								JOINT rhand
								{
									OFFSET 0 0 0
CHANNELS 3 Zrotation Xrotation Yrotation
									JOINT RFingers
									{
OFFSET 0 -0.863130 0.000000
CHANNELS 3 Zrotation Xrotation Yrotation
										End Site
										{
OFFSET 0 -0.695870 0.000000
										}
									}
								}
								JOINT RThumb
								{
OFFSET 0 0.000000 0.000000
CHANNELS 3 Zrotation Xrotation Yrotation
									End Site
									{
OFFSET 0 -0.706500 0.706500
									}
								}
							}
						}
					}
				}
			}
		}
	}
}
MOTION
Frames: 12
Frame Time: 0.008333333333333333
-3.934659 16.741057 -26.106820 2.310829 11.728518 9.800681 0.000000 0.000000 0.000000 -15.156088 -7.035802 -15.821062 4.202516 12.424346 37.251342 2.182033 -10.340933 -26.553788 4.216886 -12.443530 -37.319645 0.000000 0.000000 0.000000 5.321219 17.145385 -26.178689 -10.957802 -17.914341 62.644580 -1.271105 11.211648 -20.479108 -0.852568 -5.888247 16.460748 -0.432770 -2.328562 10.080086 0.397787 -3.167816 -5.914123 1.318940 -1.450598 -12.052141 13.023539 1.999733 -0.800633 -20.751707 1.874236 -6.002856 -8.653790 1.053811 -1.200746 0.000000 0.000000 0.000000 30.309173 24.839821 35.322541 31.911520 -42.476395 12.681037 -30.114623 -34.967750 -32.479413 0.000000 0.000000 0.000000 -7.125000 0.000000 0.000000 -61.394269 52.463690 16.133772 0.000000 0.000000 0.000000 -30.465760 15.577009 -41.240185 -30.989251 -41.726318 -12.062729 39.995462 45.031794 -28.713201 0.000000 0.000000 0.000000 7.125000 0.000000 0.000000 36.649246 -2.168044 49.642353
-3.930478 17.227700 -25.331873 1.109327 11.401610 7.776921 0.000000 0.000000 0.000000 -14.403088 -4.833044 -4.336113 1.925994 8.703438 24.876333 1.222602 -8.387863 -19.781260 4.630409 -12.955116 -39.200710 0.000000 0.000000 0.000000 7.910461 13.795254 -24.188901 -8.297072 -16.330442 53.621100 -1.432016 5.451324 -21.498664 -1.518279 -7.778368 22.044274 0.865166 -2.967151 8.261370 1.271495 -3.761723 -5.751509 1.537753 -1.816123 -10.782310 12.918556 2.281978 -1.137597 -23.114892 2.505416 -3.756569 -9.400892 1.313382 -0.351380 0.000000 0.000000 0.000000 39.213907 24.631263 34.166092 34.330857 -44.328357 14.343783 -42.702973 -46.328042 -33.456761 0.000000 0.000000 0.000000 -7.125000 0.000000 0.000000 -70.658828 50.712212 17.440970 0.000000 0.000000 0.000000 -36.966696 14.530312 -40.354494 -33.214511 -43.494051 -13.569576 48.675607 53.758044 -26.526914 0.000000 0.000000 0.000000 7.125000 0.000000 0.000000 39.762841 -5.521909 60.224989
-4.002190 17.907794 -24.406766 1.989725 11.759337 7.917155 0.000000 0.000000 0.000000 -14.957347 -4.024711 2.306464 0.924345 6.124780 17.146913 0.050176 -5.637160 -5.167392 5.076728 -13.469689 -41.153155 0.000000 0.000000 0.000000 8.151804 8.901590 -22.134425 -4.592219 -12.900896 39.012678 -0.983497 0.422256 -18.613389 -3.089289 -10.837848 31.735284 0.239342 -3.701242 4.664121 2.148628 -4.776041 -7.278269 2.794574 -2.238395 -10.185797 13.163978 3.333989 -2.058668 -25.801777 4.832526 1.336819 -10.292145 2.210865 1.757722 0.000000 0.000000 0.000000 45.859417 24.915360 29.050789 33.616920 -43.797410 13.847685 -8.752828 -29.198967 -28.598976 0.000000 0.000000 0.000000 -7.125000 0.000000 0.000000 -40.541832 53.745868 10.040939 0.000000 0.000000 0.000000 -44.297070 13.808749 -37.867318 -33.403984 -43.638109 -13.700120 25.621202 32.020203 -24.139167 0.000000 0.000000 0.000000 7.125000 0.000000 0.000000 31.592073 5.875679 34.131503
-4.162960 18.539315 -23.506336 1.817587 11.864852 7.009296 0.000000 0.000000 0.000000 -13.833692 -3.118804 2.802638 1.079401 6.602578 18.543580 0.223830 -1.942870 9.837458 2.082944 -9.036732 -25.910295 0.000000 0.000000 0.000000 9.667289 8.648767 -17.721565 -2.356698 -9.570762 27.599036 -0.226415 -4.613835 -11.868959 -2.796492 -10.357338 30.142533 0.574628 -3.804742 1.763256 2.600620 -4.882444 -7.427794 2.866603 -2.330588 -8.611127 13.394989 3.612604 -1.779660 -26.394892 5.198594 0.934121 -10.539291 2.423477 1.700733 0.000000 0.000000 0.000000 48.022601 21.982205 26.947816 32.744753 -43.132786 13.247261 14.926032 -20.472187 -21.174910 0.000000 0.000000 0.000000 -7.125000 0.000000 0.000000 -13.859775 51.302244 2.187400 0.000000 0.000000 0.000000 -45.780652 13.732350 -36.798940 -34.083492 -44.146436 -14.171157 -7.705446 14.817934 -25.732664 0.000000 0.000000 0.000000 7.125000 0.000000 0.000000 13.298443 4.604127 12.549573
-4.326341 18.809545 -22.686965 0.588169 10.487620 5.629233 0.000000 0.000000 0.000000 -11.762225 -2.284551 0.964456 1.690117 8.187930 23.286602 0.109104 -3.725795 8.703871 2.081511 -9.033731 -25.900848 0.000000 0.000000 0.000000 12.887747 7.480603 -15.551880 -1.910248 -8.676594 24.788800 -0.063739 -0.015946 -4.776233 -2.696655 -10.187074 29.584616 2.285691 -3.260936 -0.025272 3.001668 -4.089423 -7.030539 2.122610 -2.051765 -7.262731 13.943990 3.686829 -3.196177 -27.067782 5.199242 0.931334 -10.874186 2.324641 2.001230 0.000000 0.000000 0.000000 42.917543 21.476415 28.357670 35.922684 -45.458679 15.467720 21.993791 -14.828038 -20.369058 0.000000 0.000000 0.000000 -7.125000 0.000000 0.000000 -6.622882 51.683882 1.092396 0.000000 0.000000 0.000000 -43.755845 12.644275 -36.207105 -34.994325 -44.808077 -14.809326 -36.766389 1.370901 -21.470568 0.000000 0.000000 0.000000 7.125000 0.000000 0.000000 -4.977754 3.900523 -4.654229
-4.511921 18.653756 -21.871577 1.716923 9.332196 4.384262 0.000000 0.000000 0.000000 -12.006733 -1.349223 -0.708441 1.893066 8.639630 24.674379 0.001166 -0.165784 0.506795 2.260117 -9.382892 -27.004685 0.000000 0.000000 0.000000 13.619989 7.692293 -12.606152 -1.940899 -8.741796 24.990931 -0.005259 1.339778 -1.481806 -2.998295 -10.692316 31.249040 1.648287 -2.888450 -0.282027 2.579340 -3.642890 -7.228681 1.999170 -1.807121 -7.316609 13.508970 3.434092 -1.899242 -26.090593 4.673544 -0.392310 -10.470426 2.212981 1.240901 0.000000 0.000000 0.000000 35.117380 23.654970 29.522493 37.251680 -46.354643 16.421919 19.145891 -13.575901 -19.768881 0.000000 0.000000 0.000000 -7.125000 0.000000 0.000000 -9.242147 50.580596 1.281388 0.000000 0.000000 0.000000 -39.277936 14.503334 -33.780086 -38.289828 -47.022873 -17.177460 -50.997228 -2.302875 -16.930626 0.000000 0.000000 0.000000 7.125000 0.000000 0.000000 -14.522192 4.854336 -13.697946
-4.746431 18.151969 -21.134220 2.919998 8.731626 3.447514 0.000000 0.000000 0.000000 -11.833612 -1.184291 -3.784170 2.064601 8.999302 25.793143 0.163892 2.131118 -8.736468 4.636337 -12.962035 -39.226664 0.000000 0.000000 0.000000 14.032959 8.085491 -10.411038 -2.610840 -10.036498 29.095204 -0.363546 5.075596 -10.770751 -1.314781 -7.256517 20.480536 0.728921 -2.385730 0.917211 1.758301 -3.037902 -7.167485 1.673868 -1.474307 -7.951486 14.447134 3.135331 -4.573862 -25.976434 4.019213 -0.118226 -10.608075 1.705155 1.680788 0.000000 0.000000 0.000000 29.342543 25.099084 29.943595 35.895252 -45.440864 15.447790 7.662727 -16.152503 -25.311840 0.000000 0.000000 0.000000 -7.125000 0.000000 0.000000 -22.980569 53.979256 5.291409 0.000000 0.000000 0.000000 -33.785324 15.374697 -34.481111 -40.902269 -48.595289 -19.113335 -46.743599 1.689703 -15.877277 0.000000 0.000000 0.000000 7.125000 0.000000 0.000000 -12.234880 7.850565 -10.703554
-4.901417 17.603927 -20.566217 1.659499 6.529183 2.473450 0.000000 0.000000 0.000000 -9.048860 -2.249411 -8.477991 2.649268 10.103723 29.313823 0.687648 1.076589 -16.086195 4.362335 -12.626164 -37.987033 0.000000 0.000000 0.000000 16.190293 8.095077 -9.697551 -3.278578 -11.132670 32.728792 -0.866651 11.396658 -17.296742 -1.549778 -7.857558 22.282313 3.589326 -1.449449 4.928699 0.849571 -1.495569 -7.762070 -0.878097 -0.975032 -11.160156 15.199663 2.756566 -5.689108 -24.985607 3.165618 -0.788400 -10.425172 1.246347 1.497104 0.000000 0.000000 0.000000 26.527801 27.248436 31.426887 34.290463 -44.298282 14.315714 -21.616216 -22.498210 -30.449198 0.000000 0.000000 0.000000 -7.125000 0.000000 0.000000 -52.916140 52.740382 12.919054 0.000000 0.000000 0.000000 -29.455893 14.528868 -36.873432 -41.385522 -48.869687 -19.476476 -22.258203 9.610064 -18.381161 0.000000 0.000000 0.000000 7.125000 0.000000 0.000000 3.813201 10.253261 3.077092
-4.951642 17.348516 -20.032922 0.874831 2.600495 3.282940 0.000000 0.000000 0.000000 -7.491052 -4.053263 -13.800896 3.057335 10.787291 31.565840 1.047928 -1.985436 -18.786157 3.331584 -11.213358 -33.002940 0.000000 0.000000 0.000000 17.525110 9.425564 -9.172452 -3.534907 -11.514358 34.034808 -1.258345 13.231931 -20.774401 -1.447216 -7.601393 21.511363 4.724711 -0.302214 6.147296 0.304557 0.188576 -7.819486 -2.349521 -0.305878 -11.902757 13.188700 2.793029 -3.382561 -20.403583 2.463619 -8.006542 -8.561424 1.242471 -1.215868 0.000000 0.000000 0.000000 24.909144 28.553519 32.645463 33.766639 -43.911088 13.950998 -45.798743 -34.818988 -32.349422 0.000000 0.000000 0.000000 -7.125000 0.000000 0.000000 -70.925372 49.560263 14.699762 0.000000 0.000000 0.000000 -29.935751 13.793970 -35.338891 -40.005032 -48.072298 -18.443180 18.764918 31.079053 -26.223236 0.000000 0.000000 0.000000 7.125000 0.000000 0.000000 28.004290 4.740798 29.573878
-4.922496 17.597622 -19.348242 0.758782 1.935627 3.488606 0.000000 0.000000 0.000000 -8.448852 -7.282705 -16.081429 2.687059 10.169725 29.528621 0.884418 -1.967715 -17.213332 3.792702 -11.879181 -35.306019 0.000000 0.000000 0.000000 18.205015 8.655110 -4.233967 -2.575624 -9.971944 28.887755 -0.815960 12.127366 -17.052245 -1.503456 -7.734460 21.915529 4.520446 0.113926 5.722914 -0.074191 0.670799 -8.004404 -2.720883 -0.078227 -11.810432 14.892855 2.661974 -7.314306 -22.430978 1.955135 -6.437371 -9.533139 0.722384 -0.109149 0.000000 0.000000 0.000000 25.406392 28.666571 35.111592 34.082202 -44.145450 14.170337 -43.906467 -36.272273 -35.481963 0.000000 0.000000 0.000000 -7.125000 0.000000 0.000000 -73.878706 51.581869 21.666820 0.000000 0.000000 0.000000 -31.628555 13.364739 -33.892122 -39.687212 -47.883173 -18.206982 47.507589 56.569210 -27.992130 0.000000 0.000000 0.000000 7.125000 0.000000 0.000000 39.247566 -5.746567 58.800032
-4.840508 18.140557 -18.567630 0.166646 2.370284 3.307164 0.000000 0.000000 0.000000 -10.196005 -9.603351 -16.428861 1.994916 8.854075 25.340862 0.179725 -1.147969 -7.618128 2.985986 -10.671869 -31.181462 0.000000 0.000000 0.000000 19.077740 5.087571 0.420809 -1.699614 -8.210019 23.353985 -0.068537 7.522692 -6.600015 -1.691666 -8.174446 23.255418 4.473768 0.244410 3.998966 -0.309160 0.732008 -8.128481 -2.936069 -0.034304 -10.889955 13.307753 2.576966 -5.205530 -20.936525 1.744418 -9.593010 -8.797351 0.835542 -1.459804 0.000000 0.000000 0.000000 29.088057 28.504551 34.643396 35.531440 -45.187795 15.189188 -33.801617 -31.298148 -34.733469 0.000000 0.000000 0.000000 -7.125000 0.000000 0.000000 -66.517726 53.084011 20.177420 0.000000 0.000000 0.000000 -33.270575 13.375357 -34.289443 -40.431166 -48.323238 -18.760617 47.806030 52.568732 -24.368266 0.000000 0.000000 0.000000 7.125000 0.000000 0.000000 39.694260 -3.257239 58.563647
-4.771486 18.625510 -17.803070 -0.900907 1.868905 3.386548 0.000000 0.000000 0.000000 -11.503800 -9.399618 -16.262728 1.373022 7.415255 20.951701 0.007191 -0.263999 1.691863 3.081531 -10.824523 -31.691690 0.000000 0.000000 0.000000 19.662751 1.602960 -0.706763 -1.921083 -8.699016 24.858588 -0.012975 2.823578 4.691675 -2.609361 -10.028318 29.073501 3.538179 0.324112 1.837162 -0.085319 0.688575 -8.514719 -2.141809 0.048461 -10.021332 12.801770 2.751405 -4.661061 -20.638392 2.330357 -7.664572 -8.551520 1.116720 -0.921432 0.000000 0.000000 0.000000 35.056015 28.882475 33.474058 36.817624 -46.067207 16.108515 -18.124794 -22.611961 -32.150352 0.000000 0.000000 0.000000 -7.125000 0.000000 0.000000 -51.801064 54.576342 15.231027 0.000000 0.000000 0.000000 -36.442775 12.423066 -33.134294 -38.666166 -47.258948 -17.453420 30.049577 37.306935 -23.504816 0.000000 0.000000 0.000000 7.125000 0.000000 0.000000 33.669508 5.664537 37.674745
